<?xml version="1.0" encoding="utf-8"?>
<svg version="1.1" xmlns:xlink="http://www.w3.org/1999/xlink" width="48px" height="48px" xmlns="http://www.w3.org/2000/svg">
  <g transform="matrix(1 0 0 1 -546 -2327 )">
    <path d="M 6.375 1  L 41.463 1  C 42.347 0.162  43.1715 0.332  43.9365 0.672  C 44.7015 1.012  45.373 1.471  45.951 2.049  C 46.529 2.627  46.988 3.2985  47.328 4.0635  C 47.668 4.8285  47.838 5.653  47 6.537  L 47 41.625  C 47.838 42.509  47.668 43.3335  47.328 44.0985  C 46.988 44.8635  46.529 45.535  45.951 46.113  C 45.373 46.691  44.7015 47.15  43.9365 47.49  C 43.1715 47.83  42.347 48  41.463 48  L 6.375 48  C 5.491 48  4.6665 47.83  3.9015 47.49  C 3.1365 47.15  2.465 46.691  1.887 46.113  C 1.309 45.535  0.85 44.8635  0.51 44.0985  C 0.17 43.3335  0 42.509  0 41.625  L 0 6.537  C 0 5.653  0.17 4.8285  0.51 4.0635  C 0.85 3.2985  1.309 2.627  1.887 2.049  C 2.465 1.471  3.1365 1.012  3.9015 0.672000000000003  C 4.6665 0.332000000000004  5.491 0.162000000000004  6.375 1  Z M 7.5225 42.645  C 8.0835 42.883  8.704 43.002  9.384 43.002  C 10.03 43.002  10.642 42.883  11.22 42.645  C 11.798 42.407  12.2995 42.0755  12.7245 41.6505  C 13.1495 41.2255  13.481 40.724  13.719 40.146  C 13.957 39.568  14.076 38.956  14.076 38.31  C 14.076 37.664  13.957 37.052  13.719 36.474  C 13.481 35.896  13.1495 35.3945  12.7245 34.9695  C 12.2995 34.5445  11.798 34.213  11.22 33.975  C 10.642 33.737  10.03 33.618  9.384 33.618  C 8.704 33.618  8.0835 33.737  7.5225 33.975  C 6.9615 34.213  6.46 34.5445  6.018 34.9695  C 5.576 35.3945  5.236 35.896  4.998 36.474  C 4.76 37.052  4.641 37.664  4.641 38.31  C 4.641 38.956  4.76 39.568  4.998 40.146  C 5.236 40.724  5.576 41.2255  6.018 41.6505  C 6.46 42.0755  6.9615 42.407  7.5225 42.645  Z M 20.9865 35.5305  C 21.8195 37.4515  22.236 39.5  22.236 41.676  L 24.072 41.676  C 24.582 41.676  25.0835 41.6845  25.5765 41.7015  C 26.0695 41.7185  26.588 41.727  27.132 41.727  C 27.676 41.727  28.288 41.71  28.968 41.676  C 28.968 38.582  28.373 35.6665  27.183 32.9295  C 25.993 30.1925  24.378 27.804  22.338 25.764  C 20.298 23.724  17.9095 22.1175  15.1725 20.9445  C 12.4355 19.7715  9.51999999999999 19.185  6.426 19.185  C 6.392 20.001  6.375 20.664  6.375 21.174  L 6.375 22.602  C 6.375 23.078  6.3835 23.5625  6.4005 24.0555  C 6.4175 24.5485  6.426 25.169  6.426 25.917  C 8.602 25.917  10.6505 26.325  12.5715 27.141  C 14.4925 27.957  16.167 29.079  17.595 30.507  C 19.023 31.935  20.1535 33.6095  20.9865 35.5305  Z M 32.997 30.4305  C 34.493 33.9155  35.241 37.63  35.241 41.574  C 36.465 41.574  37.281 41.5825  37.689 41.5995  C 38.097 41.6165  38.403 41.642  38.607 41.676  C 38.811 41.71  39.0745 41.727  39.3975 41.727  C 39.7205 41.727  40.409 41.693  41.463 41.625  C 41.463 36.797  40.545 32.2665  38.709 28.0335  C 36.873 23.8005  34.374 20.103  31.212 16.941  C 28.05 13.779  24.344 11.28  20.094 9.44399999999999  C 15.844 7.60799999999999  11.305 6.68999999999999  6.47699999999999 6.68999999999999  C 6.443 7.53999999999999  6.42599999999999 8.15199999999999  6.42599999999999 8.52599999999999  L 6.42599999999999 9.34199999999999  C 6.42599999999999 9.47799999999999  6.4345 9.57149999999999  6.45149999999999 9.62249999999999  C 6.4685 9.67349999999999  6.47699999999999 9.79249999999999  6.47699999999999 9.97949999999999  C 6.47699999999999 10.1665  6.48549999999999 10.4725  6.50249999999999 10.8975  C 6.5195 11.3225  6.528 11.994  6.528 12.912  C 10.506 12.912  14.2375 13.66  17.7225 15.156  C 21.2075 16.652  24.2505 18.7005  26.8515 21.3015  C 29.4525 23.9025  31.501 26.9455  32.997 30.4305  Z " fill-rule="nonzero" fill="#34a853" stroke="none" transform="matrix(1 0 0 1 546 2327 )" />
  </g>
</svg>