<?xml version="1.0" encoding="utf-8"?>
<svg version="1.1" xmlns:xlink="http://www.w3.org/1999/xlink" width="48px" height="48px" xmlns="http://www.w3.org/2000/svg">
  <g transform="matrix(1 0 0 1 -806 -2327 )">
    <path d="M 48 5.22857142857143  C 48 2.35102040816327  45.6125 0  42.65 0  L 40.025 0  C 41.9 0.69795918367347  42.875 2.52244897959184  42 5.22857142857143  L 42 41.8040816326531  C 42.875 44.5102040816327  42 46.3714285714286  40.025 47.0326530612245  L 42.65 47.0326530612245  C 45.6125 47.0326530612245  48 44.6816326530612  48 41.8040816326531  L 48 5.22857142857143  Z M 40 5.22857142857143  C 40 2.52244897959184  37.875 0.281632653061226  35.1875 0.0244897959183677  C 35.0125 0.0122448979591847  34.8375 0  34.6625 0  L 5.3375 0  C 2.4 0  0 2.35102040816327  0 5.22857142857143  L 0 41.8040816326531  C 0 44.6816326530612  2.4 47.0326530612245  5.3375 47  L 34.675 47  C 34.85 47.0326530612245  35.025 47.0204081632653  35.2 47.0081632653061  C 37.8875 46.7510204081633  40.0125 44.5102040816327  40 41.8040816326531  L 40 5.22857142857143  Z M 18 4  L 18 23.5102040816327  L 11 19.5918367346939  L 4 23.5102040816327  L 4 4  L 18 4  Z " fill-rule="nonzero" fill="#4285f4" stroke="none" transform="matrix(1 0 0 1 806 2327 )" />
  </g>
</svg>