<?xml version="1.0" encoding="utf-8"?>
<svg version="1.1" xmlns:xlink="http://www.w3.org/1999/xlink" width="48px" height="41px" xmlns="http://www.w3.org/2000/svg">
  <g transform="matrix(1 0 0 1 -1066 -2331 )">
    <path d="M 47.6475535714286 21.5018841145833  C 46.6981607142857 17.5791236979167  43.3385892857143 14.73197265625  39.6548035714286 14.73197265625  C 38.819032484608 14.7313216053494  37.9895694851311 14.8761434422889  37.2038035714286 15.15991015625  C 38.2847142857143 9.31281901041667  35.7373392857143 4.38710677083333  31.8285535714286 1.995546875  C 28.1155178571429 -0.276643229166667  22.6847142857143 -0.295595052083334  18.7497321428571 4.48170572916667  C 16.1176071428571 1.30703515625  12.5331428571429 -0.0874453125000003  8.84351785714286 0.714563802083333  C 4.34175 1.69562760416667  0.86244642857143 5.69558333333333  0.184714285714286 10.6708372395833  C -0.355821428571428 14.6475169270833  0.298607142857144 24.9399583333333  18.0632678571429 34.5861692708333  C 18.4926910998508 34.8209904868227  19.0127196144349 34.8209904868227  19.4421428571429 34.5861692708333  C 20.7537857142857 33.8758229166667  22.0099285714286 33.1364348958333  23.1901607142857 32.3839140625  C 25.45425 35.2703567708333  28.8195 37.9385065104167  33.2278392857143 40.3328958333333  C 33.4411607142857 40.4493828125  33.6806785714286 40.5076263020833  33.9173035714286 40.5076263020833  C 34.1539285714286 40.5076263020833  34.3906071428571 40.4493828125  34.6067678571429 40.3328958333333  C 39.8330357142857 37.4945  43.5956785714286 34.2703411458333  45.7925357142857 30.755125  C 48.2318035714286 26.8512630208333  48.1471071428571 23.5689140625  47.6475535714286 21.5018841145833  Z M 44.7876428571429 22.2296875  C 45.2404285714286 24.0928385416667  45.7516607142857 30.5993997395833  33.9173035714286 37.28053125  C 22.08 30.5978515625  22.5942321428571 24.0928385416667  23.0440714285714 22.2296875  C 23.66925 19.6372916666667  25.8310714285714 17.7537473958333  28.1768571428571 17.7537473958333  C 29.9121428571429 17.7537473958333  31.5071785714286 18.8046927083333  32.6669464285714 20.7130078125  C 32.9356607142857 21.15551953125  33.4090178571428 21.4262369791667  33.9173035714286 21.4262369791667  C 34.4255892857143 21.4262369791667  34.8988928571429 21.1554661458333  35.1676607142857 20.7130078125  C 36.3245357142857 18.8046927083333  37.9195178571429 17.7537473958333  39.6548571428571 17.7537473958333  C 42.0036428571429 17.7537473958333  44.1624642857143 19.6373450520833  44.7876428571429 22.2296875  Z " fill-rule="nonzero" fill="#ea4335" stroke="none" transform="matrix(1 0 0 1 1066 2331 )" />
  </g>
</svg>