<?xml version="1.0" encoding="utf-8"?>
<svg version="1.1" xmlns:xlink="http://www.w3.org/1999/xlink" width="48px" height="48px" xmlns="http://www.w3.org/2000/svg">
  <g transform="matrix(1 0 0 1 -1326 -2324 )">
    <path d="M 21.4186666875 0.0720000000000098  C 9.4186666875 1.37866668750001  0.058666687499997 11.5653333125  0.0586666875000006 23.9386666875  C 0.0586666875000006 37.193500683439  10.803832691561 47.9386666875  24.0586666875 47.9386666875  C 36.405333375 47.9386666875  46.592 38.605333375  47.9253333125 26.6053333125  C 48.1653333125 24.498666625  45.8453333125 22.818666625  43.8186666875 24.072  C 41.5032355603346 25.5499320199536  38.8135702464827 26.3351702815814  36.0666621009033 26.3351702815814  C 28.1138326807219 26.3351702815814  21.665012395108 19.8914935760031  21.6586666875 11.9386666875  C 21.6586666875 9.11200000000001  22.485333375 6.44533337500001  23.8986666875 4.23200000000001  C 25.0986666875 2.44533331250001  23.792 -0.11466668749999  21.4186666875 0.0720000000000098  Z " fill-rule="nonzero" fill="#243b53" stroke="none" transform="matrix(1 0 0 1 1326 2324 )" />
  </g>
</svg>