<?xml version="1.0" encoding="utf-8"?>
<svg version="1.1" xmlns:xlink="http://www.w3.org/1999/xlink" width="35px" height="32px" xmlns="http://www.w3.org/2000/svg">
  <g transform="matrix(1 0 0 1 -200 -25 )">
    <path d="M 33.72 8.02  C 34.3691666542969 6.405  33.625 4.5525  31.9941666542969 3.8875  L 29.8725 3.00083334570312  L 29.8725 17.2983333457031  L 33.72 8.02  Z M 2.845 5.62916665429687  C 1.2319699306217 6.2897116256325  0.459427429142321 8.13247355363323  1.11916665429687 9.74583334570312  L 8.9725 28.6666666542969  C 9.44510577075984 29.8431521287876  10.5709483526198 30.6268878453735  11.8383333457031 30.6616666542969  C 12.25 30.6616666542969  12.6775 30.5825  13.0891666542969 30.4083333457031  L 24.7583333457031 25.5791666542969  C 25.9458333457031 25.0883333085938  26.6741666914063 23.9166666542969  26.7058333457031 22.745  C 26.7216666914063 22.3333333457031  26.6425 21.8741666542969  26.5 21.4625  L 18.5833333457031 2.54166665429688  C 18.1253684619752 1.35583872665774  16.9886610791801 0.570819824182373  15.7175 0.5625  C 15.3058333457031 0.5625  14.8941666542969 0.6575  14.4983333457031 0.8  L 2.845 5.62916665429687  Z M 26.69 13.7675  L 26.69 3.72916665429688  C 26.69 1.98026495333101  25.272235046669 0.562500000000002  23.5233333457031 0.562500000000002  L 21.2275 0.562500000000002  L 26.69 13.7675  Z " fill-rule="nonzero" fill="#4285f4" stroke="none" transform="matrix(1 0 0 1 200 25 )" />
  </g>
</svg>